<?xml version="1.0" encoding="UTF-8" standalone="no"?>
<!DOCTYPE svg PUBLIC "-//W3C//DTD SVG 1.1//EN"
 "http://www.w3.org/Graphics/SVG/1.1/DTD/svg11.dtd">
<!-- Generated by graphviz version 2.38.0 (20140413.2041)
 -->
<!-- Title: %27 Pages: 1 -->
<svg width="506pt" height="496pt"
 viewBox="0.00 0.00 505.89 496.00" xmlns="http://www.w3.org/2000/svg" xmlns:xlink="http://www.w3.org/1999/xlink">
<g id="graph0" class="graph" transform="scale(1 1) rotate(0) translate(4 492)">
<title>%27</title>
<polygon fill="white" stroke="none" points="-4,4 -4,-492 501.889,-492 501.889,4 -4,4"/>
<!-- Check reset type -->
<g id="node1" class="node"><title>Check reset type</title>
<ellipse fill="none" stroke="black" cx="275.095" cy="-470" rx="71.4873" ry="18"/>
<text text-anchor="middle" x="275.095" y="-466.3" font-family="Times New Roman,serif" font-size="14.00">Check reset type</text>
</g>
<!-- If internal reset -->
<g id="node2" class="node"><title>If internal reset</title>
<ellipse fill="none" stroke="black" cx="94.0946" cy="-397" rx="64.189" ry="18"/>
<text text-anchor="middle" x="94.0946" y="-393.3" font-family="Times New Roman,serif" font-size="14.00">If internal reset</text>
</g>
<!-- Check reset type&#45;&gt;If internal reset -->
<g id="edge1" class="edge"><title>Check reset type&#45;&gt;If internal reset</title>
<path fill="none" stroke="black" d="M238.03,-454.461C209.472,-443.259 169.855,-427.718 139.412,-415.777"/>
<polygon fill="black" stroke="black" points="140.464,-412.429 129.876,-412.036 137.908,-418.946 140.464,-412.429"/>
</g>
<!-- If external reset -->
<g id="node4" class="node"><title>If external reset</title>
<ellipse fill="none" stroke="black" cx="275.095" cy="-397" rx="66.0889" ry="18"/>
<text text-anchor="middle" x="275.095" y="-393.3" font-family="Times New Roman,serif" font-size="14.00">If external reset</text>
</g>
<!-- Check reset type&#45;&gt;If external reset -->
<g id="edge3" class="edge"><title>Check reset type&#45;&gt;If external reset</title>
<path fill="none" stroke="black" d="M275.095,-451.813C275.095,-443.789 275.095,-434.047 275.095,-425.069"/>
<polygon fill="black" stroke="black" points="278.595,-425.029 275.095,-415.029 271.595,-425.029 278.595,-425.029"/>
</g>
<!-- User program -->
<g id="node3" class="node"><title>User program</title>
<ellipse fill="none" stroke="black" cx="61.0946" cy="-324" rx="61.1893" ry="18"/>
<text text-anchor="middle" x="61.0946" y="-320.3" font-family="Times New Roman,serif" font-size="14.00">User program</text>
</g>
<!-- If internal reset&#45;&gt;User program -->
<g id="edge2" class="edge"><title>If internal reset&#45;&gt;User program</title>
<path fill="none" stroke="black" d="M86.1062,-378.813C82.2554,-370.528 77.5529,-360.41 73.269,-351.193"/>
<polygon fill="black" stroke="black" points="76.3982,-349.622 69.0094,-342.029 70.0504,-352.572 76.3982,-349.622"/>
</g>
<!-- Set WatchDog interrrupt for 1 sec -->
<g id="node5" class="node"><title>Set WatchDog interrrupt for 1 sec</title>
<ellipse fill="none" stroke="black" cx="275.095" cy="-324" rx="134.576" ry="18"/>
<text text-anchor="middle" x="275.095" y="-320.3" font-family="Times New Roman,serif" font-size="14.00">Set WatchDog interrrupt for 1 sec</text>
</g>
<!-- If external reset&#45;&gt;Set WatchDog interrrupt for 1 sec -->
<g id="edge4" class="edge"><title>If external reset&#45;&gt;Set WatchDog interrrupt for 1 sec</title>
<path fill="none" stroke="black" d="M275.095,-378.813C275.095,-370.789 275.095,-361.047 275.095,-352.069"/>
<polygon fill="black" stroke="black" points="278.595,-352.029 275.095,-342.029 271.595,-352.029 278.595,-352.029"/>
</g>
<!-- Set serial pins for serial communication -->
<g id="node6" class="node"><title>Set serial pins for serial communication</title>
<ellipse fill="none" stroke="black" cx="261.095" cy="-251" rx="153.273" ry="18"/>
<text text-anchor="middle" x="261.095" y="-247.3" font-family="Times New Roman,serif" font-size="14.00">Set serial pins for serial communication</text>
</g>
<!-- Set WatchDog interrrupt for 1 sec&#45;&gt;Set serial pins for serial communication -->
<g id="edge5" class="edge"><title>Set WatchDog interrrupt for 1 sec&#45;&gt;Set serial pins for serial communication</title>
<path fill="none" stroke="black" d="M271.706,-305.813C270.123,-297.789 268.203,-288.047 266.432,-279.069"/>
<polygon fill="black" stroke="black" points="269.821,-278.163 264.452,-269.029 262.953,-279.517 269.821,-278.163"/>
</g>
<!-- Flash LED -->
<g id="node7" class="node"><title>Flash LED</title>
<ellipse fill="none" stroke="black" cx="257.095" cy="-178" rx="50.0912" ry="18"/>
<text text-anchor="middle" x="257.095" y="-174.3" font-family="Times New Roman,serif" font-size="14.00">Flash LED</text>
</g>
<!-- Set serial pins for serial communication&#45;&gt;Flash LED -->
<g id="edge6" class="edge"><title>Set serial pins for serial communication&#45;&gt;Flash LED</title>
<path fill="none" stroke="black" d="M260.126,-232.813C259.674,-224.789 259.125,-215.047 258.62,-206.069"/>
<polygon fill="black" stroke="black" points="262.111,-205.816 258.054,-196.029 255.122,-206.21 262.111,-205.816"/>
</g>
<!-- wait for valid STK500 commands -->
<g id="node8" class="node"><title>wait for valid STK500 commands</title>
<ellipse fill="none" stroke="black" cx="239.095" cy="-105" rx="133.776" ry="18"/>
<text text-anchor="middle" x="239.095" y="-101.3" font-family="Times New Roman,serif" font-size="14.00">wait for valid STK500 commands</text>
</g>
<!-- Flash LED&#45;&gt;wait for valid STK500 commands -->
<g id="edge7" class="edge"><title>Flash LED&#45;&gt;wait for valid STK500 commands</title>
<path fill="none" stroke="black" d="M252.737,-159.813C250.681,-151.702 248.18,-141.836 245.883,-132.777"/>
<polygon fill="black" stroke="black" points="249.262,-131.862 243.412,-123.029 242.477,-133.582 249.262,-131.862"/>
</g>
<!-- Trigger Reset -->
<g id="node9" class="node"><title>Trigger Reset</title>
<ellipse fill="none" stroke="black" cx="438.095" cy="-18" rx="59.5901" ry="18"/>
<text text-anchor="middle" x="438.095" y="-14.3" font-family="Times New Roman,serif" font-size="14.00">Trigger Reset</text>
</g>
<!-- wait for valid STK500 commands&#45;&gt;Trigger Reset -->
<g id="edge8" class="edge"><title>wait for valid STK500 commands&#45;&gt;Trigger Reset</title>
<path fill="none" stroke="black" d="M249.426,-86.5908C256.865,-75.5781 267.893,-61.9645 281.095,-54 313.415,-34.5011 327.255,-44.2258 364.095,-36 369.946,-34.6934 376.054,-33.3144 382.143,-31.9301"/>
<polygon fill="black" stroke="black" points="383.353,-35.2441 392.324,-29.607 381.796,-28.4195 383.353,-35.2441"/>
<text text-anchor="middle" x="355.095" y="-57.8" font-family="Times New Roman,serif" font-size="14.00">WatchDog Timer interrupt</text>
</g>
<!-- Execute STK500 Commands -->
<g id="node10" class="node"><title>Execute STK500 Commands</title>
<ellipse fill="none" stroke="black" cx="238.095" cy="-18" rx="116.979" ry="18"/>
<text text-anchor="middle" x="238.095" y="-14.3" font-family="Times New Roman,serif" font-size="14.00">Execute STK500 Commands</text>
</g>
<!-- wait for valid STK500 commands&#45;&gt;Execute STK500 Commands -->
<g id="edge10" class="edge"><title>wait for valid STK500 commands&#45;&gt;Execute STK500 Commands</title>
<path fill="none" stroke="black" d="M233.344,-86.799C231.942,-75.1626 231.492,-59.5479 232.068,-46.2368"/>
<polygon fill="black" stroke="black" points="235.565,-46.3895 232.751,-36.1754 228.581,-45.9154 235.565,-46.3895"/>
</g>
<!-- Trigger Reset&#45;&gt;Check reset type -->
<g id="edge9" class="edge"><title>Trigger Reset&#45;&gt;Check reset type</title>
<path fill="none" stroke="black" d="M439.704,-36.239C441.166,-53.3989 443.095,-80.4959 443.095,-104 443.095,-398 443.095,-398 443.095,-398 443.095,-439.714 398.606,-457.298 355.416,-464.54"/>
<polygon fill="black" stroke="black" points="354.737,-461.102 345.368,-466.05 355.778,-468.024 354.737,-461.102"/>
</g>
<!-- Execute STK500 Commands&#45;&gt;wait for valid STK500 commands -->
<g id="edge11" class="edge"><title>Execute STK500 Commands&#45;&gt;wait for valid STK500 commands</title>
<path fill="none" stroke="black" d="M243.843,-36.1754C245.245,-47.806 245.697,-63.4194 245.123,-76.7339"/>
<polygon fill="black" stroke="black" points="241.625,-76.5853 244.441,-86.799 248.609,-77.0584 241.625,-76.5853"/>
</g>
</g>
</svg>
